<svg width="66" height="78" viewBox="0 0 66 78" fill="none" xmlns="http://www.w3.org/2000/svg">
<ellipse cx="33" cy="27.1116" rx="33" ry="27.1116" fill="white"/>
<path d="M39.9186 15.6097V14.615C39.9186 13.4856 39.0152 12.5704 37.9034 12.5704H34.5961C34.8716 12.0652 35.0282 11.4395 35.0282 10.8038C35.0268 8.71379 33.3515 7.01111 31.293 7.01111C29.2345 7.01111 27.5605 8.71379 27.5605 10.8038C27.5605 11.4395 27.7171 12.0652 27.9926 12.5704H25.2797C24.1665 12.5704 23.2645 13.4856 23.2645 14.615V15.6097H18.7699C17.082 15.6097 15.7143 16.9988 15.7143 18.7114V49.2831C15.7143 50.9957 17.082 52.3862 18.7699 52.3862H35.119C31.0782 52.3862 47.466 29.7165 47.466 40.7217V18.7114C47.466 16.9988 46.0969 15.6097 44.409 15.6097H39.9186ZM29.0694 10.8053C29.0694 9.55946 30.0665 8.54352 31.2916 8.54352C32.5194 8.54352 33.5165 9.55946 33.5165 10.8053C33.5165 11.5175 33.1892 12.1291 32.6774 12.5718H29.9071C29.3967 12.1277 29.0694 11.5175 29.0694 10.8053ZM44.409 40.7217C44.409 40.7217 36.1567 49.3455 35.119 49.3455H20.6494C19.6118 49.3455 18.7699 48.4913 18.7699 47.4385V20.6184C18.7699 19.5641 19.6118 18.7114 20.6494 18.7114H23.2617C23.2617 19.55 23.9316 20.231 24.758 20.231H38.4194C39.2473 20.231 39.9158 19.5514 39.9158 18.7114H42.5295C43.5657 18.7114 44.409 19.5656 44.409 20.6184V40.7217Z" fill="url(#paint0_linear_120_1808)"/>
<path d="M24.4056 28.2905C25.8723 28.2905 27.0613 27.0841 27.0613 25.596C27.0613 24.1079 25.8723 22.9015 24.4056 22.9015C22.939 22.9015 21.75 24.1079 21.75 25.596C21.75 27.0841 22.939 28.2905 24.4056 28.2905Z" fill="url(#paint1_linear_120_1808)"/>
<path d="M39.5144 24.0919H30.4581C29.6246 24.0919 28.9478 24.7659 28.9478 25.6116C28.9478 26.4572 29.6232 27.1312 30.4581 27.1312H39.5172C40.3507 27.1312 41.0247 26.4572 41.0247 25.6116C41.0247 24.7659 40.3493 24.0919 39.5144 24.0919Z" fill="url(#paint2_linear_120_1808)"/>
<path d="M24.4056 35.934C25.8723 35.934 27.0613 34.7277 27.0613 33.2395C27.0613 31.7514 25.8723 30.545 24.4056 30.545C22.939 30.545 21.75 31.7514 21.75 33.2395C21.75 34.7277 22.939 35.934 24.4056 35.934Z" fill="url(#paint3_linear_120_1808)"/>
<path d="M39.5144 31.6874H30.4581C29.6246 31.6874 28.9478 32.394 28.9478 33.2397C28.9478 34.0853 29.6232 34.7891 30.4581 34.7891H39.5172C40.3507 34.7891 41.0247 34.0853 41.0247 33.2397C41.0247 32.394 40.3493 31.6874 39.5144 31.6874Z" fill="url(#paint4_linear_120_1808)"/>
<path d="M24.4056 44.1012C25.8715 44.1012 27.0598 42.8955 27.0598 41.4082C27.0598 39.9208 25.8715 38.7151 24.4056 38.7151C22.9397 38.7151 21.7513 39.9208 21.7513 41.4082C21.7513 42.8955 22.9397 44.1012 24.4056 44.1012Z" fill="url(#paint5_linear_120_1808)"/>
<path d="M39.5144 39.8517H30.4581C29.6246 39.8517 28.9478 40.5583 28.9478 41.404C28.9478 42.2496 29.6232 42.9534 30.4581 42.9534H39.5172C40.3507 42.9534 41.0247 42.2482 41.0247 41.404C41.0247 40.5583 40.3493 39.8517 39.5144 39.8517Z" fill="url(#paint6_linear_120_1808)"/>
<path d="M41.3815 52.1277L41.3815 52.1277C41.8278 52.5805 42.553 52.5805 42.9993 52.1277L48.6115 46.4333C49.0554 45.983 49.0554 45.2546 48.6116 44.8042C48.1653 44.3515 47.44 44.3515 46.9938 44.8042L44.4852 47.3494L44.6989 47.56L44.4852 47.3494L42.1904 49.6778L40.7545 48.2209C40.3082 47.7681 39.5828 47.7681 39.1366 48.2209C38.6927 48.6713 38.6927 49.3996 39.1366 49.8499L39.3502 49.6394L39.1366 49.8499L41.3815 52.1277ZM54.7986 48.466C54.7986 54.5942 49.9034 59.5547 43.8741 59.5547C37.8447 59.5547 32.9496 54.5942 32.9496 48.466C32.9496 42.3377 37.8447 37.3773 43.8741 37.3773C49.9034 37.3773 54.7986 42.3377 54.7986 48.466Z" fill="url(#paint7_linear_120_1808)" stroke="white" stroke-width="0.6"/>
<path d="M12.68 74.15C12.51 74.15 12.375 74.1 12.275 74C12.175 73.89 12.125 73.74 12.125 73.55V66.77C12.125 65.71 12.425 64.875 13.025 64.265C13.625 63.655 14.45 63.35 15.5 63.35C16.11 63.35 16.67 63.51 17.18 63.83C17.7 64.14 18.09 64.555 18.35 65.075C18.61 64.545 18.99 64.125 19.49 63.815C20 63.505 20.57 63.35 21.2 63.35C22.25 63.35 23.075 63.655 23.675 64.265C24.275 64.865 24.575 65.7 24.575 66.77V73.55C24.575 73.74 24.52 73.89 24.41 74C24.31 74.1 24.175 74.15 24.005 74.15C23.825 74.15 23.685 74.1 23.585 74C23.495 73.89 23.45 73.74 23.45 73.55V66.77C23.45 65.98 23.27 65.375 22.91 64.955C22.56 64.535 21.98 64.325 21.17 64.325C20.46 64.325 19.905 64.545 19.505 64.985C19.105 65.415 18.905 66.01 18.905 66.77V73.55C18.905 73.74 18.855 73.89 18.755 74C18.655 74.1 18.52 74.15 18.35 74.15C18.18 74.15 18.045 74.1 17.945 74C17.855 73.89 17.81 73.74 17.81 73.55V66.77C17.81 66.03 17.6 65.44 17.18 65C16.76 64.55 16.21 64.325 15.53 64.325C14.72 64.325 14.135 64.535 13.775 64.955C13.425 65.375 13.25 65.98 13.25 66.77V73.55C13.25 73.74 13.2 73.89 13.1 74C13 74.1 12.86 74.15 12.68 74.15ZM29.502 74.15C28.522 74.15 27.752 73.935 27.192 73.505C26.642 73.075 26.367 72.48 26.367 71.72C26.367 70.97 26.657 70.375 27.237 69.935C27.827 69.495 28.627 69.275 29.637 69.275C30.227 69.275 30.747 69.355 31.197 69.515C31.657 69.675 32.012 69.89 32.262 70.16V69.2C32.262 68.63 32.072 68.195 31.692 67.895C31.322 67.595 30.777 67.445 30.057 67.445C29.127 67.445 28.322 67.665 27.642 68.105C27.472 68.205 27.332 68.255 27.222 68.255C27.122 68.255 27.022 68.215 26.922 68.135C26.812 68.045 26.757 67.93 26.757 67.79C26.757 67.64 26.822 67.515 26.952 67.415C27.312 67.135 27.767 66.915 28.317 66.755C28.877 66.585 29.447 66.5 30.027 66.5C31.087 66.5 31.907 66.74 32.487 67.22C33.077 67.7 33.372 68.375 33.372 69.245V73.565C33.372 73.955 33.192 74.15 32.832 74.15C32.672 74.15 32.542 74.1 32.442 74C32.342 73.89 32.292 73.75 32.292 73.58V73.04C31.672 73.78 30.742 74.15 29.502 74.15ZM29.637 73.235C30.417 73.235 31.052 73.09 31.542 72.8C32.032 72.5 32.277 72.115 32.277 71.645C32.277 71.175 32.047 70.815 31.587 70.565C31.137 70.305 30.497 70.175 29.667 70.175C28.967 70.175 28.427 70.31 28.047 70.58C27.667 70.84 27.477 71.22 27.477 71.72C27.477 72.21 27.662 72.585 28.032 72.845C28.402 73.105 28.937 73.235 29.637 73.235ZM35.9546 74.15C35.7846 74.15 35.6496 74.1 35.5496 74C35.4596 73.89 35.4146 73.74 35.4146 73.55V67.1C35.4146 66.91 35.4596 66.765 35.5496 66.665C35.6396 66.555 35.7746 66.5 35.9546 66.5C36.1246 66.5 36.2546 66.555 36.3446 66.665C36.4446 66.765 36.4946 66.91 36.4946 67.1V68C37.1746 67.1 38.1146 66.65 39.3146 66.65H39.6896C39.8796 66.65 40.0296 66.695 40.1396 66.785C40.2496 66.865 40.3046 66.98 40.3046 67.13C40.3046 67.28 40.2496 67.395 40.1396 67.475C40.0296 67.555 39.8796 67.595 39.6896 67.595H39.2696C38.4196 67.595 37.7446 67.84 37.2446 68.33C36.7546 68.81 36.5096 69.465 36.5096 70.295V73.55C36.5096 73.73 36.4596 73.875 36.3596 73.985C36.2696 74.095 36.1346 74.15 35.9546 74.15ZM42.4592 74.15C42.2892 74.15 42.1542 74.1 42.0542 74C41.9642 73.89 41.9192 73.74 41.9192 73.55V63.215C41.9192 63.025 41.9642 62.88 42.0542 62.78C42.1542 62.67 42.2892 62.615 42.4592 62.615C42.6292 62.615 42.7642 62.67 42.8642 62.78C42.9642 62.88 43.0142 63.025 43.0142 63.215V69.935L47.9942 66.575C48.0942 66.505 48.1992 66.47 48.3092 66.47C48.4792 66.47 48.6042 66.54 48.6842 66.68C48.7342 66.75 48.7592 66.845 48.7592 66.965C48.7592 67.145 48.6792 67.285 48.5192 67.385L45.8342 69.17C46.7042 69.76 47.3792 70.41 47.8592 71.12C48.3392 71.82 48.6692 72.635 48.8492 73.565C48.8792 73.725 48.8492 73.865 48.7592 73.985C48.6692 74.095 48.5392 74.15 48.3692 74.15C48.0392 74.15 47.8442 74.01 47.7842 73.73C47.5742 72.77 47.2642 72.01 46.8542 71.45C46.4542 70.88 45.8192 70.315 44.9492 69.755L43.0142 71.06V73.55C43.0142 73.73 42.9642 73.875 42.8642 73.985C42.7742 74.095 42.6392 74.15 42.4592 74.15ZM51.4147 64.91C51.1947 64.91 51.0047 64.84 50.8447 64.7C50.6947 64.55 50.6197 64.37 50.6197 64.16C50.6197 63.95 50.6947 63.77 50.8447 63.62C51.0047 63.47 51.1947 63.395 51.4147 63.395C51.6347 63.395 51.8247 63.475 51.9847 63.635C52.1547 63.785 52.2397 63.96 52.2397 64.16C52.2397 64.36 52.1547 64.535 51.9847 64.685C51.8247 64.835 51.6347 64.91 51.4147 64.91ZM51.4147 74.15C51.2447 74.15 51.1097 74.1 51.0097 74C50.9197 73.89 50.8747 73.74 50.8747 73.55V67.1C50.8747 66.91 50.9197 66.765 51.0097 66.665C51.1097 66.555 51.2447 66.5 51.4147 66.5C51.5947 66.5 51.7297 66.555 51.8197 66.665C51.9197 66.765 51.9697 66.91 51.9697 67.1V73.55C51.9697 73.74 51.9197 73.89 51.8197 74C51.7297 74.1 51.5947 74.15 51.4147 74.15Z" fill="url(#paint8_linear_120_1808)"/>
<defs>
<linearGradient id="paint0_linear_120_1808" x1="50" y1="58.3638" x2="17.3993" y2="15.1883" gradientUnits="userSpaceOnUse">
<stop stop-color="#92218F"/>
<stop offset="1" stop-color="#6FC8E6"/>
</linearGradient>
<linearGradient id="paint1_linear_120_1808" x1="27.4852" y1="29.0004" x2="24.1325" y2="22.7465" gradientUnits="userSpaceOnUse">
<stop stop-color="#92218F"/>
<stop offset="1" stop-color="#6FC8E6"/>
</linearGradient>
<linearGradient id="paint2_linear_120_1808" x1="41.9886" y1="27.5316" x2="41.3953" y2="23.0697" gradientUnits="userSpaceOnUse">
<stop stop-color="#92218F"/>
<stop offset="1" stop-color="#6FC8E6"/>
</linearGradient>
<linearGradient id="paint3_linear_120_1808" x1="27.4852" y1="36.644" x2="24.1325" y2="30.3901" gradientUnits="userSpaceOnUse">
<stop stop-color="#92218F"/>
<stop offset="1" stop-color="#6FC8E6"/>
</linearGradient>
<linearGradient id="paint4_linear_120_1808" x1="41.9886" y1="35.1977" x2="41.3711" y2="30.6475" gradientUnits="userSpaceOnUse">
<stop stop-color="#92218F"/>
<stop offset="1" stop-color="#6FC8E6"/>
</linearGradient>
<linearGradient id="paint5_linear_120_1808" x1="27.4835" y1="44.8108" x2="24.1326" y2="38.5602" gradientUnits="userSpaceOnUse">
<stop stop-color="#92218F"/>
<stop offset="1" stop-color="#6FC8E6"/>
</linearGradient>
<linearGradient id="paint6_linear_120_1808" x1="41.9886" y1="43.362" x2="41.3711" y2="38.8118" gradientUnits="userSpaceOnUse">
<stop stop-color="#92218F"/>
<stop offset="1" stop-color="#6FC8E6"/>
</linearGradient>
<linearGradient id="paint7_linear_120_1808" x1="43.8741" y1="37.0773" x2="43.8741" y2="59.8547" gradientUnits="userSpaceOnUse">
<stop stop-color="#92218F"/>
<stop offset="0.948623" stop-color="#6FC8E6"/>
</linearGradient>
<linearGradient id="paint8_linear_120_1808" x1="33" y1="58" x2="33" y2="78" gradientUnits="userSpaceOnUse">
<stop stop-color="#8F2E96"/>
<stop offset="1" stop-color="#74B1DA"/>
</linearGradient>
</defs>
</svg>
