<svg width="66" height="66" viewBox="0 0 66 66" fill="none" xmlns="http://www.w3.org/2000/svg">
<circle cx="33" cy="33" r="33" fill="white"/>
<path d="M39.9186 13.8623V12.882C39.9186 11.7689 39.0152 10.8669 37.9034 10.8669H34.5961C34.8716 10.369 35.0282 9.7523 35.0282 9.1258C35.0268 7.06589 33.3515 5.38776 31.293 5.38776C29.2345 5.38776 27.5605 7.06589 27.5605 9.1258C27.5605 9.7523 27.7171 10.369 27.9926 10.8669H25.2797C24.1665 10.8669 23.2645 11.7689 23.2645 12.882V13.8623H18.7699C17.082 13.8623 15.7143 15.2314 15.7143 16.9193V47.0502C15.7143 48.7381 17.082 50.1086 18.7699 50.1086H35.119C31.0782 50.1086 47.466 27.7658 47.466 38.6122V16.9193C47.466 15.2314 46.0969 13.8623 44.409 13.8623H39.9186ZM29.0694 9.1272C29.0694 7.89936 30.0665 6.89808 31.2916 6.89808C32.5194 6.89808 33.5165 7.89936 33.5165 9.1272C33.5165 9.82921 33.1892 10.4319 32.6774 10.8683H29.9071C29.3967 10.4305 29.0694 9.82921 29.0694 9.1272ZM44.409 38.6122C44.409 38.6122 36.1567 47.1117 35.119 47.1117H20.6494C19.6118 47.1117 18.7699 46.2699 18.7699 45.2322V18.7988C18.7699 17.7598 19.6118 16.9193 20.6494 16.9193H23.2617C23.2617 17.7458 23.9316 18.4171 24.758 18.4171H38.4194C39.2473 18.4171 39.9158 17.7472 39.9158 16.9193H42.5295C43.5657 16.9193 44.409 17.7612 44.409 18.7988V38.6122Z" fill="url(#paint0_linear_147_52)"/>
<path d="M24.4056 26.3602C25.8723 26.3602 27.0613 25.1712 27.0613 23.7046C27.0613 22.2379 25.8723 21.0489 24.4056 21.0489C22.939 21.0489 21.75 22.2379 21.75 23.7046C21.75 25.1712 22.939 26.3602 24.4056 26.3602Z" fill="url(#paint1_linear_147_52)"/>
<path d="M39.5144 22.2222H30.4581C29.6246 22.2222 28.9478 22.8865 28.9478 23.72C28.9478 24.5534 29.6232 25.2177 30.4581 25.2177H39.5172C40.3507 25.2177 41.0247 24.5534 41.0247 23.72C41.0247 22.8865 40.3493 22.2222 39.5144 22.2222Z" fill="url(#paint2_linear_147_52)"/>
<path d="M24.4056 33.8936C25.8723 33.8936 27.0613 32.7047 27.0613 31.238C27.0613 29.7713 25.8723 28.5823 24.4056 28.5823C22.939 28.5823 21.75 29.7713 21.75 31.238C21.75 32.7047 22.939 33.8936 24.4056 33.8936Z" fill="url(#paint3_linear_147_52)"/>
<path d="M39.5144 29.7081H30.4581C29.6246 29.7081 28.9478 30.4045 28.9478 31.238C28.9478 32.0715 29.6232 32.7651 30.4581 32.7651H39.5172C40.3507 32.7651 41.0247 32.0715 41.0247 31.238C41.0247 30.4045 40.3493 29.7081 39.5144 29.7081Z" fill="url(#paint4_linear_147_52)"/>
<path d="M24.4056 41.9431C25.8715 41.9431 27.0599 40.7547 27.0599 39.2888C27.0599 37.8229 25.8715 36.6346 24.4056 36.6346C22.9397 36.6346 21.7514 37.8229 21.7514 39.2888C21.7514 40.7547 22.9397 41.9431 24.4056 41.9431Z" fill="url(#paint5_linear_147_52)"/>
<path d="M39.5144 37.7547H30.4581C29.6246 37.7547 28.9478 38.4512 28.9478 39.2846C28.9478 40.1181 29.6232 40.8117 30.4581 40.8117H39.5172C40.3507 40.8117 41.0247 40.1167 41.0247 39.2846C41.0247 38.4512 40.3493 37.7547 39.5144 37.7547Z" fill="url(#paint6_linear_147_52)"/>
<path d="M44.4867 45.1399L42.1904 47.4362L40.7529 45.9988C40.7529 45.9988 40.7529 45.9988 40.7529 45.9988C40.307 45.5528 39.584 45.5528 39.1381 45.9988C38.6922 46.4447 38.6922 47.1676 39.1381 47.6135L39.3502 47.4014L39.1381 47.6135L41.383 49.8584L41.383 49.8584C41.829 50.3043 42.5519 50.3043 42.9978 49.8584L48.61 44.2462C48.61 44.2462 48.61 44.2462 48.61 44.2462C49.056 43.8003 49.0559 43.0773 48.61 42.6314C48.1641 42.1855 47.4412 42.1855 46.9953 42.6314L44.4867 45.1399L44.6989 45.352L44.4867 45.1399ZM54.7986 46.2449C54.7986 52.2783 49.9075 57.1694 43.8741 57.1694C37.8407 57.1694 32.9496 52.2783 32.9496 46.2449C32.9496 40.2115 37.8407 35.3204 43.8741 35.3204C49.9075 35.3204 54.7986 40.2115 54.7986 46.2449Z" fill="url(#paint7_linear_147_52)" stroke="white" stroke-width="0.6"/>
<defs>
<linearGradient id="paint0_linear_147_52" x1="50" y1="56" x2="18" y2="13" gradientUnits="userSpaceOnUse">
<stop stop-color="#92218F"/>
<stop offset="1" stop-color="#6FC8E6"/>
</linearGradient>
<linearGradient id="paint1_linear_147_52" x1="27.4852" y1="27.0599" x2="24.2075" y2="20.8565" gradientUnits="userSpaceOnUse">
<stop stop-color="#92218F"/>
<stop offset="1" stop-color="#6FC8E6"/>
</linearGradient>
<linearGradient id="paint2_linear_147_52" x1="41.9886" y1="25.6123" x2="41.412" y2="21.2126" gradientUnits="userSpaceOnUse">
<stop stop-color="#92218F"/>
<stop offset="1" stop-color="#6FC8E6"/>
</linearGradient>
<linearGradient id="paint3_linear_147_52" x1="27.4852" y1="34.5933" x2="24.2075" y2="28.39" gradientUnits="userSpaceOnUse">
<stop stop-color="#92218F"/>
<stop offset="1" stop-color="#6FC8E6"/>
</linearGradient>
<linearGradient id="paint4_linear_147_52" x1="41.9886" y1="33.1678" x2="41.3884" y2="28.6809" gradientUnits="userSpaceOnUse">
<stop stop-color="#92218F"/>
<stop offset="1" stop-color="#6FC8E6"/>
</linearGradient>
<linearGradient id="paint5_linear_147_52" x1="27.4835" y1="42.6424" x2="24.2076" y2="36.4423" gradientUnits="userSpaceOnUse">
<stop stop-color="#92218F"/>
<stop offset="1" stop-color="#6FC8E6"/>
</linearGradient>
<linearGradient id="paint6_linear_147_52" x1="41.9886" y1="41.2144" x2="41.3884" y2="36.7275" gradientUnits="userSpaceOnUse">
<stop stop-color="#92218F"/>
<stop offset="1" stop-color="#6FC8E6"/>
</linearGradient>
<linearGradient id="paint7_linear_147_52" x1="43.8741" y1="35.0204" x2="43.8741" y2="57.4694" gradientUnits="userSpaceOnUse">
<stop stop-color="#92218F"/>
<stop offset="0.948623" stop-color="#6FC8E6"/>
</linearGradient>
</defs>
</svg>
